<svg width="154" height="33" viewBox="0 0 154 33" fill="none" xmlns="http://www.w3.org/2000/svg">
<path d="M87.0953 20.0522L94.8466 4.0937L101.686 1.35796" stroke="#0D3674" stroke-width="2"/>
<rect x="81.6239" y="13.2128" width="12.7668" height="16.4144" fill="#EB2E39"/>
<path d="M0.6604 10.2874L10.613 32.363H14.5197L24.4413 10.2874H19.5425L12.6002 26.3079L5.71422 10.2874H0.6604Z" fill="#212121"/>
<path fill-rule="evenodd" clip-rule="evenodd" d="M34.6741 10.2874L24.5355 32.363H29.4033L31.5194 27.4642H41.8142L43.9136 32.363H48.7194L38.5808 10.2874H34.6741ZM40.2329 23.7746L36.6871 15.5012L33.1132 23.7746H40.2329Z" fill="#212121"/>
<path fill-rule="evenodd" clip-rule="evenodd" d="M63.3163 23.8056C62.8202 23.5782 62.2517 23.4646 61.611 23.4646H58.4795V32.363H53.7047V10.2874H63.5333C66.117 10.2874 68.0704 10.8558 69.3932 11.9927C70.7161 13.1089 71.3776 14.7005 71.3776 16.7675C71.3776 18.7311 70.6955 20.3124 69.3312 21.5112C68.6558 22.0946 67.8486 22.5335 66.9097 22.828C67.3813 22.9293 67.8165 23.1312 68.215 23.4335C68.8352 23.8883 69.3209 24.5807 69.6723 25.5109L72.3387 32.363H67.2229L64.4014 25.0148C64.1741 24.4154 63.8123 24.0123 63.3163 23.8056ZM65.8587 14.7211C65.2386 14.2457 64.2257 14.008 62.8202 14.008H58.4485V19.775H62.8202C64.2051 19.775 65.2179 19.5372 65.8587 19.0618C66.4994 18.5864 66.8198 17.863 66.8198 16.8915C66.8198 15.8993 66.4994 15.1759 65.8587 14.7211Z" fill="#212121"/>
<path d="M81.0514 30.2547C82.6636 31.8462 85.0303 32.642 88.1515 32.642C91.2107 32.642 93.5567 31.8462 95.1897 30.2547C96.8226 28.6424 97.6391 26.3067 97.6391 23.2475V10.2874H92.8333V23.4646C92.8333 25.2215 92.4302 26.5651 91.6241 27.4952C90.818 28.4254 89.6604 28.8904 88.1515 28.8904C86.5806 28.8904 85.3921 28.4254 84.5859 27.4952C83.7798 26.5651 83.3768 25.2215 83.3768 23.4646V10.2874H78.664V23.2475C78.664 26.3274 79.4598 28.6631 81.0514 30.2547Z" fill="#212121"/>
<path d="M120.524 32.363L109.517 18.302V32.363H104.99V10.2874H108.556L119.563 24.3325V10.2874H124.12V32.363H120.524Z" fill="#212121"/>
<path fill-rule="evenodd" clip-rule="evenodd" d="M139.243 10.2874L129.105 32.363H133.973L136.089 27.4642H146.383L148.483 32.363H153.289L143.15 10.2874H139.243ZM144.802 23.7746L141.256 15.5012L137.683 23.7746H144.802Z" fill="#212121"/>
</svg>
