<svg width="50" height="50" viewBox="0 0 50 50" fill="none" xmlns="http://www.w3.org/2000/svg">
<path d="M27.8011 22.5544C25.2537 23.5853 23.2292 25.5713 22.1758 28.0727C22.1709 28.0822 22.1625 28.0876 22.1593 28.0972C22.1557 28.1067 22.1593 28.1169 22.1528 28.1264C19.9673 33.3346 22.4808 39.2988 27.7739 41.4637C27.7843 41.4684 27.7908 41.4773 27.8011 41.4815C27.8115 41.4856 27.8234 41.4815 27.8338 41.4875C33.1279 43.6324 39.1909 41.17 41.3987 35.9781C41.4055 35.9644 41.4161 35.9542 41.4216 35.9406C41.4271 35.9269 41.4216 35.9209 41.4278 35.9113C43.6136 30.7032 41.0998 24.7393 35.8067 22.5741C35.7963 22.5693 35.7902 22.5604 35.7795 22.5563C35.7691 22.5521 35.7581 22.5563 35.7478 22.5502C33.2036 21.5132 30.344 21.5145 27.8011 22.5544ZM34.5912 23.5895L31.7905 30.2331L28.9881 23.5853C30.8062 22.9869 32.7737 22.9882 34.5912 23.5895ZM40.3714 29.2648C40.9682 31.0531 40.9682 32.9818 40.3714 34.7701L33.6063 32.0176L40.3714 29.2648ZM23.2092 34.7701C22.6124 32.9818 22.6124 31.0531 23.2092 29.2648L29.9743 32.0176L23.2092 34.7701ZM27.7044 24.1094L30.5061 30.7556L23.7438 28.0037C24.6077 26.3238 25.9956 24.9595 27.7044 24.1094ZM23.7432 36.0327L30.5087 33.2796L27.7086 39.9233C25.9956 39.0779 24.6045 37.7142 23.7403 36.0327H23.7432ZM28.9923 40.4454L31.7905 33.8017L34.5925 40.4496C32.7728 41.0384 30.8085 41.0369 28.9894 40.4454H28.9923ZM35.8791 39.9258L33.0774 33.2796L39.8397 36.0315C38.9748 37.7117 37.5862 39.0763 35.8762 39.9258H35.8791ZM39.8403 28.0022L33.0749 30.7556L35.8749 24.1119C37.5869 24.9576 38.9771 26.3213 39.8403 28.0022Z" fill="#EB2E39"/>
<path d="M4.00178 10.8983C4.00178 10.925 4.00372 10.9514 4.00728 10.9777C4.02119 11.0391 4.04318 11.0982 4.07262 11.1538C4.08167 11.171 4.08523 11.19 4.09558 11.2062L4.09914 11.2151C5.93468 13.6749 8.49151 15.5246 11.4271 16.5164C10.4545 17.7517 9.61386 19.0824 8.91813 20.4867C6.6317 25.1368 7.07935 31.3079 9.9428 35.3676C8.73183 37.5823 9.15651 38.7417 9.75423 39.3283C10.1294 39.7069 10.6463 39.9172 11.1839 39.9102C12.182 39.8241 13.1261 39.4275 13.8791 38.7779C16.1034 39.8263 18.5522 40.3336 21.0182 40.2563H21.5865C25.2747 44.6732 31.4702 46.1983 36.8423 44.0121C41.9042 41.9607 45.149 37.0484 44.9947 31.6702C44.8401 26.2924 41.3188 21.5676 36.1472 19.7996C35.5447 17.9259 34.5459 16.1983 33.2159 14.7307C33.2744 14.1192 33.1696 13.503 32.9115 12.9437C35.5314 10.9558 36.4878 8.57324 36.2676 7.72312C36.1974 7.40754 35.9305 7.17077 35.6039 7.13454C35.0152 7.07162 34.7328 7.63508 34.6406 7.81719C34.345 8.39845 32.8245 8.71244 31.6236 8.78776C31.2684 7.89028 30.1341 6.293 26.5015 4.76341C25.9749 4.54762 25.4283 4.38173 24.8697 4.26764C24.8542 4.26224 24.8403 4.2616 24.8225 4.25747C21.8776 3.64284 18.2624 4.18914 15.0801 5.25569H15.0759C12.9356 5.93325 10.9225 6.95022 9.1164 8.26656C6.63591 10.2169 5.39033 10.2681 5.05071 10.2341L4.85406 10.1861C4.83918 10.182 4.82527 10.1861 4.81072 10.1861C4.7525 10.1756 4.69266 10.1727 4.63347 10.1778C4.60824 10.1778 4.58301 10.1794 4.55778 10.1829C4.4808 10.1963 4.40641 10.2223 4.33816 10.2598C4.32361 10.2687 4.31326 10.2818 4.29935 10.2913C4.25342 10.3193 4.21105 10.3529 4.17353 10.3911C4.16577 10.3993 4.16253 10.4095 4.15542 10.4184C4.13795 10.4422 4.12146 10.467 4.1069 10.4928C4.07488 10.5398 4.04933 10.5903 4.03025 10.6437C4.02604 10.658 4.01569 10.6682 4.01149 10.6825C4.00728 10.6968 4.01149 10.7114 4.01149 10.7264C4.00081 10.7829 3.99758 10.8408 4.00178 10.8983ZM19.3266 5.5986C19.7283 6.53612 20.0734 7.49589 20.36 8.47345C19.2544 8.55354 18.155 8.70163 17.0683 8.91678C16.9205 8.37652 16.6264 7.3659 16.2412 6.32192C17.252 6.0127 18.2825 5.77117 19.3266 5.5986ZM31.4191 13.1321L31.424 13.1423C31.4288 13.1493 31.4366 13.1512 31.4415 13.1572C31.7568 13.5472 31.9046 14.0426 31.8529 14.5381C31.6527 14.6236 31.3296 14.6372 30.7124 14.3331C30.1286 14.0986 29.6072 13.7363 29.1877 13.2736C29.539 12.9913 29.8705 12.6863 30.18 12.3605C30.6571 12.4997 31.085 12.767 31.4159 13.1321H31.4191ZM25.8378 13.7468C26.3637 12.0846 26.7515 10.3752 26.8741 9.8114C28.2572 9.8845 29.4099 9.98874 30.1454 10.0647C29.7055 10.91 28.5935 12.4047 25.8342 13.7445L25.8378 13.7468ZM25.4645 9.75261C25.1136 11.3512 24.6656 12.9278 24.1226 14.4739C22.8867 14.9207 21.6191 15.2776 20.3299 15.542C21.0431 13.6578 21.6088 11.7227 22.0215 9.75388C23.2004 9.70875 24.3713 9.71638 25.461 9.75038L25.4645 9.75261ZM20.5822 9.83174C20.2299 11.3982 19.4488 14.4227 18.6635 15.8316C17.5466 15.9812 16.4169 16.0159 15.2926 15.9345C16.0378 14.1186 16.6193 12.242 17.0301 10.3262C18.199 10.0749 19.3851 9.90897 20.5789 9.82983L20.5822 9.83174ZM13.8367 15.7578C13.489 15.6962 13.1543 15.6212 12.8289 15.5414C12.793 15.5296 12.7558 15.5214 12.7186 15.516C10.3772 14.901 8.24634 13.6813 6.54696 11.9836C8.65355 12.3897 10.9992 12.4129 15.3585 10.8077C15.4038 10.7906 15.4517 10.7763 15.4976 10.7597C15.1211 12.4775 14.5632 14.1516 13.8332 15.7556L13.8367 15.7578ZM10.7369 38.3635C10.4409 38.0718 10.5062 37.4206 10.8953 36.5539C11.4019 37.0945 11.9653 37.5811 12.576 38.005C11.9255 38.4159 11.1415 38.7607 10.7369 38.3635ZM42.7067 27.5741C44.6981 32.2969 43.3109 37.7435 39.2905 40.9882C35.2701 44.233 29.5629 44.5117 25.2349 41.6747C20.9069 38.8377 18.9769 33.5529 20.4819 28.6594C21.9869 23.7661 26.5723 20.4159 31.7749 20.4089C36.5661 20.3809 40.8931 23.2179 42.706 27.5753L42.7067 27.5741ZM26.737 20.0304C23.5016 21.3473 20.9308 23.8729 19.5905 27.0522C18.2501 30.2315 18.2501 33.8037 19.5905 36.9826C19.8696 37.6411 20.2034 38.2758 20.5886 38.8806C18.3575 38.919 16.1523 38.4083 14.1738 37.3945L13.991 37.2887C12.9499 36.6779 12.041 35.8726 11.3152 34.9185C8.55199 31.3175 8.05906 25.3691 10.1699 21.0813C10.9047 19.5988 11.8113 18.2046 12.8713 16.9261C13.219 17.0074 13.576 17.0789 13.9457 17.1377C14.0243 17.1692 14.1078 17.1863 14.1925 17.1883C14.2148 17.1883 14.2362 17.1822 14.2621 17.18C15.0021 17.2877 15.7489 17.3433 16.4971 17.3475C17.7122 17.343 18.9239 17.22 20.1145 16.9807C22.9265 16.5148 25.6234 15.5309 28.0637 14.0814C28.6149 14.7205 29.308 15.2265 30.0898 15.5605C30.5465 15.8055 31.0549 15.9434 31.575 15.9625C31.8374 15.9612 32.0968 15.91 32.3393 15.8115C33.2586 16.8539 33.9896 18.0428 34.5009 19.3271C31.9001 18.783 29.1926 19.0283 26.737 20.0304ZM32.0592 11.8612C31.7604 11.6076 31.4246 11.3988 31.0634 11.2418C31.2882 10.8983 31.4748 10.5322 31.6194 10.1492C32.482 10.1165 33.3355 9.96744 34.1568 9.70621C33.5836 10.5335 32.875 11.2619 32.0592 11.8612ZM29.9743 8.67017C29.1654 8.58881 28.0081 8.49061 26.6558 8.42355C26.4362 7.67258 26.1574 6.80403 25.8397 5.97361C25.8766 5.98854 25.9177 5.99744 25.9546 6.01302C28.3655 7.02458 29.471 8.01136 29.9766 8.67017H29.9743ZM24.1455 5.5058C24.5547 6.43792 24.904 7.39419 25.1922 8.36921C24.1087 8.34093 22.9514 8.34188 21.7818 8.39018C21.493 7.38148 21.1501 6.38834 20.7552 5.41491C21.8847 5.30304 23.0238 5.33355 24.1455 5.5058ZM9.98517 9.33311C11.4905 8.23605 13.1562 7.36845 14.9258 6.76017C15.2906 7.74981 15.5743 8.7242 15.7195 9.24921C15.4261 9.3347 15.1399 9.42559 14.8659 9.5257C11.5209 10.7591 9.51456 10.9666 7.80904 10.7883C8.5756 10.3657 9.30367 9.87878 9.98517 9.33311Z" fill="#EB2E39"/>
<path d="M13.2752 19.8842C13.0909 20.0351 8.7784 23.6695 10.9697 30.8478C11.058 31.1366 11.3288 31.3346 11.6357 31.3346C11.7033 31.3346 11.7703 31.3248 11.8349 31.306C12.0115 31.2539 12.16 31.1354 12.2473 30.9758C12.335 30.8163 12.3544 30.6294 12.3014 30.4559C10.3833 24.1736 14.0124 21.061 14.1683 20.932C14.4626 20.6895 14.5014 20.2586 14.2546 19.9694C14.0082 19.6802 13.5696 19.642 13.2752 19.8842Z" fill="#EB2E39"/>
</svg>
