<svg width="50" height="50" viewBox="0 0 50 50" fill="none" xmlns="http://www.w3.org/2000/svg">
<path d="M21.2221 40.5031H12.6761C12.2753 40.5031 11.9505 40.8279 11.9505 41.2287C11.9505 41.6295 12.2754 41.9543 12.6761 41.9543H21.2221C21.6229 41.9543 21.9477 41.6295 21.9477 41.2287C21.9477 40.8279 21.6229 40.5031 21.2221 40.5031Z" fill="#EB2E39"/>
<path d="M21.2221 42.9333H12.6761C12.2753 42.9333 11.9505 43.2581 11.9505 43.6588C11.9505 44.0596 12.2754 44.3844 12.6761 44.3844H21.2221C21.6229 44.3844 21.9477 44.0596 21.9477 43.6588C21.9477 43.2581 21.6229 42.9333 21.2221 42.9333Z" fill="#EB2E39"/>
<path d="M24.6917 31.41V25.1819C24.6917 25.1801 24.6917 25.1781 24.6917 25.1763V20.0371C25.0444 19.7684 25.2544 19.3443 25.2544 18.9005V17.336C25.2544 16.4764 24.8392 15.6616 24.1435 15.1565L20.6844 12.6447C20.3635 12.4117 20.172 12.0359 20.172 11.6393V8.66686C20.4757 8.43825 20.6734 8.07594 20.6734 7.66735V1.25156C20.6734 0.561521 20.1119 0 19.4217 0H14.4766C13.7864 0 13.2249 0.561521 13.2249 1.25156V7.66735C13.2249 8.07594 13.4226 8.43825 13.7263 8.66686V11.6393C13.7263 12.0359 13.5347 12.4117 13.2139 12.6447L9.75479 15.1565C9.05909 15.6616 8.64386 16.4764 8.64386 17.3361V18.9006C8.64386 19.345 8.84874 19.7587 9.20655 20.037V24.9614C9.20655 24.9615 9.20655 24.9616 9.20655 24.9617V31.6299C9.20655 31.63 9.20655 31.6301 9.20655 31.6301V45.5702C8.85402 45.839 8.64386 46.2631 8.64386 46.7067V47.9017C8.64386 49.0587 9.58516 50 10.7422 50H23.1561C24.3131 50 25.2544 49.0587 25.2544 47.9017V46.7067C25.2544 46.263 25.0442 45.839 24.6917 45.5702V31.4157C24.6917 31.4138 24.6917 31.4119 24.6917 31.41ZM14.6762 1.45126H19.2222V2.76776H14.6762V1.45126ZM14.6762 4.21893H19.2222V7.46735L14.6762 7.46774V4.21893ZM18.7208 8.91911V10.9138H15.1774V8.91911H18.7208ZM23.1561 48.5485H10.7422C10.3854 48.5485 10.095 48.2583 10.095 47.9015V46.7176C10.4476 46.4487 10.6577 46.0247 10.6577 45.581V32.6276C11.5141 35.3289 14.0094 37.177 16.8846 37.177C19.8275 37.177 22.3734 35.2415 23.1702 32.436H23.2405V45.5811C23.2405 46.0247 23.4506 46.4487 23.8032 46.7177V47.9015H23.8033C23.8033 48.2583 23.5129 48.5485 23.1561 48.5485ZM23.2406 20.0261V24.1561H23.1703C22.3735 21.3506 19.8275 19.4151 16.8846 19.4151C16.2533 19.4151 15.6291 19.505 15.0291 19.6824C14.6448 19.7961 14.4254 20.1998 14.5391 20.5841C14.6527 20.9685 15.0565 21.1879 15.4406 21.0741C15.9069 20.9361 16.3928 20.8663 16.8846 20.8663C19.2468 20.8663 21.2801 22.469 21.8294 24.7637C21.9482 25.2604 22.3887 25.6074 22.9006 25.6074H23.2405V30.9848H22.9006C22.3887 30.9848 21.9482 31.3318 21.8295 31.8285C21.2802 34.1232 19.2468 35.7259 16.8846 35.7259C14.5224 35.7259 12.4892 34.1233 11.9399 31.8284C11.821 31.3317 11.3805 30.9848 10.8687 30.9848H10.6578V25.6074H10.8687C11.3805 25.6074 11.821 25.2605 11.9399 24.7638C12.1127 24.0422 12.4505 23.3534 12.917 22.7718C13.1678 22.4593 13.1176 22.0025 12.805 21.7518C12.4924 21.501 12.0357 21.5511 11.785 21.8638C11.2844 22.4878 10.9008 23.2088 10.6578 23.9698V20.0261C10.6578 19.5859 10.4498 19.1629 10.0951 18.8883V17.3361C10.0951 16.9395 10.2867 16.5637 10.6075 16.3307L14.0666 13.8189C14.5617 13.4594 14.9138 12.9427 15.0762 12.3649H18.8221C18.9845 12.9426 19.3366 13.4593 19.8317 13.8189L23.2908 16.3307C23.6117 16.5637 23.8032 16.9395 23.8032 17.3361V18.8896H23.8033C23.4507 19.1583 23.2406 19.5824 23.2406 20.0261Z" fill="#EB2E39"/>
<path d="M20.4697 26.0274C20.4684 25.9565 20.4567 25.8862 20.435 25.8186C19.9388 24.2742 18.5121 23.2366 16.8847 23.2366C15.2575 23.2365 13.8307 24.2742 13.3344 25.8186C13.3127 25.8862 13.301 25.9566 13.2998 26.0275C13.2791 27.1726 13.2791 29.42 13.2998 30.5646C13.301 30.6355 13.3128 30.7058 13.3344 30.7734C13.8306 32.3178 15.2574 33.3554 16.8847 33.3554C18.5122 33.3554 19.9389 32.3178 20.435 30.7735C20.4567 30.7059 20.4684 30.6355 20.4697 30.5647C20.4904 29.42 20.4904 27.1726 20.4697 26.0274ZM19.0204 30.4244C18.6913 31.3136 17.8454 31.9042 16.8845 31.9042C15.9238 31.9042 15.0778 31.3136 14.7487 30.4242C14.7309 29.3023 14.7309 27.2901 14.7488 26.1679C15.078 25.2785 15.924 24.6878 16.8845 24.6878C17.8453 24.6878 18.6913 25.2785 19.0204 26.1678C19.0382 27.2902 19.0382 29.3024 19.0204 30.4244Z" fill="#EB2E39"/>
<path d="M39.7967 48.3521C39.7685 48.334 39.7391 48.3179 39.7086 48.304C38.4175 47.71 36.8651 47.0305 35.9058 46.7297V42.2627C35.9727 42.2324 36.0386 42.1984 36.1023 42.1594L38.311 40.8086C40.7201 39.3352 41.8592 36.5095 41.1458 33.7773L39.6808 28.1676C39.5619 27.7128 39.1506 27.3951 38.6803 27.3951H31.6799C31.2098 27.3951 30.7982 27.7128 30.6792 28.1679L29.2144 33.7774C28.501 36.5096 29.64 39.3353 32.0491 40.8087L34.2578 42.1595C34.3217 42.1985 34.3875 42.2325 34.4544 42.2628V46.7298C33.495 47.0305 31.9428 47.7101 30.6517 48.3041C30.6211 48.318 30.5918 48.3342 30.5635 48.3522C30.2349 48.5627 30.0866 48.987 30.2029 49.3842C30.3107 49.7524 30.6295 49.9999 30.9961 49.9999H39.3637C39.7303 49.9999 40.0491 49.7524 40.157 49.3841C40.2735 48.9869 40.1253 48.5626 39.7967 48.3521ZM32.8064 39.5704C30.9473 38.4332 30.068 36.2525 30.6187 34.1438L30.9241 32.974H34.7392C35.14 32.974 35.4648 32.6492 35.4648 32.2485C35.4648 31.8477 35.14 31.5229 34.7392 31.5229H31.3031L32.0021 28.8462H38.3583L39.0572 31.5229H38.1155C37.7147 31.5229 37.3899 31.8477 37.3899 32.2485C37.3899 32.6492 37.7147 32.974 38.1155 32.974H39.4362L39.7417 34.1438C40.2922 36.2525 39.4131 38.4333 37.5539 39.5704L35.3451 40.9213C35.2434 40.9835 35.117 40.9836 35.0152 40.9212L32.8064 39.5704ZM33.7232 48.5485C34.4129 48.267 34.9656 48.0631 35.1803 48.0262C35.3947 48.0631 35.9474 48.267 36.6372 48.5485H33.7232Z" fill="#EB2E39"/>
</svg>
