<svg width="50" height="50" viewBox="0 0 50 50" fill="none" xmlns="http://www.w3.org/2000/svg">
<path d="M27.6617 35.3429C27.4796 35.1612 27.2256 35.0567 26.9657 35.0567C26.7069 35.0568 26.4528 35.1612 26.2698 35.3429C26.0867 35.5245 25.9814 35.7766 25.9814 36.0334C25.9814 36.2902 26.0867 36.5423 26.2698 36.7238C26.4538 36.9055 26.7069 37.0101 26.9657 37.0101C27.2256 37.0101 27.4786 36.9056 27.6617 36.7238C27.8457 36.5423 27.9501 36.2902 27.9501 36.0334C27.9501 35.7766 27.8457 35.5245 27.6617 35.3429Z" fill="#EB2E39"/>
<path d="M24.013 45.3921V33.2071H26.9661C27.1204 33.2071 27.2727 33.1711 27.4105 33.102C27.7028 32.9553 34.6079 29.4143 37.8477 21.2713C41.0912 13.1182 36.478 1.12979 36.2801 0.623437C36.133 0.247656 35.7686 0 35.3622 0H14.6376C14.2313 0 13.8668 0.247656 13.7199 0.623437C13.522 1.12988 8.90878 13.1182 12.1523 21.2713C14.9081 28.1981 20.3118 31.7941 22.0443 32.8043V44.7416L16.9461 46.8548C16.2121 47.1589 15.8088 47.9118 15.9651 48.6856C16.1214 49.4596 16.7861 50 17.5816 50H32.4184C33.2137 50 33.8783 49.4598 34.0348 48.6861C34.1913 47.9126 33.7884 47.1597 33.0548 46.8553L27.9506 44.736V39.6797C27.9506 39.1403 27.5098 38.703 26.9662 38.703C26.4226 38.703 25.9819 39.1404 25.9819 39.6797V45.3861C25.9819 45.7798 26.2202 46.1352 26.5863 46.2871L30.8243 48.0467H19.1779L23.408 46.2935C23.7744 46.1415 24.013 45.7861 24.013 45.3921ZM13.9836 20.5541C12.2689 16.244 13.0536 10.5145 14.0259 6.43398H28.5234C29.0671 6.43398 29.5077 5.99668 29.5077 5.45732C29.5077 4.91797 29.067 4.48066 28.5234 4.48066H14.5352C14.848 3.37607 15.1388 2.49883 15.3293 1.95342H34.6707C35.5525 4.47842 38.5819 14.1055 36.0165 20.5541C33.3497 27.2571 27.8183 30.6338 26.7152 31.2538H23.2801C22.1742 30.6317 16.6494 27.255 13.9836 20.5541Z" fill="#EB2E39"/>
<path d="M27.4392 7.81514C23.069 7.81514 19.5135 11.3429 19.5135 15.6791C19.5135 20.0152 23.0689 23.5432 27.4392 23.5432C31.8095 23.5432 35.3651 20.0154 35.3651 15.6791C35.365 11.3428 31.8095 7.81514 27.4392 7.81514ZM21.8284 17.6627C21.6049 17.0422 21.4822 16.3746 21.4822 15.6791C21.4822 14.9198 21.6289 14.1943 21.8929 13.5268L25.4706 15.5763L21.8284 17.6627ZM26.4548 21.5075C24.9797 21.2631 23.6871 20.4793 22.7894 19.3676L26.4548 17.2679V21.5075ZM26.4548 13.8846L22.9054 11.8514C23.7968 10.8136 25.0421 10.0848 26.4548 9.85068V13.8846ZM28.4236 9.85059C29.8364 10.0847 31.0816 10.8135 31.9729 11.8513L28.4236 13.8845V9.85059ZM28.4236 21.5075V17.2679L32.089 19.3677C31.1914 20.4792 29.8987 21.263 28.4236 21.5075ZM29.4079 15.5762L32.9856 13.5267C33.2496 14.1941 33.3963 14.9197 33.3963 15.679C33.3963 16.3747 33.2737 17.0423 33.0502 17.6626L29.4079 15.5762Z" fill="#EB2E39"/>
<path d="M33.304 4.76689C33.12 4.58525 32.8669 4.48076 32.6081 4.48076C32.3482 4.48076 32.0942 4.58525 31.9111 4.76689C31.7281 4.94854 31.6227 5.20049 31.6227 5.45742C31.6227 5.71426 31.7281 5.96631 31.9111 6.14795C32.0952 6.32959 32.3482 6.43408 32.6081 6.43408C32.8659 6.43408 33.12 6.32959 33.304 6.14795C33.4871 5.96631 33.5914 5.71426 33.5914 5.45742C33.5914 5.20049 33.4871 4.94854 33.304 4.76689Z" fill="#EB2E39"/>
<path d="M23.2064 26.0684C23.0234 25.8856 22.7703 25.7822 22.5105 25.7822C22.2516 25.7822 21.9976 25.8857 21.8145 26.0684C21.6314 26.25 21.5261 26.5011 21.5261 26.7589C21.5261 27.0157 21.6314 27.2678 21.8145 27.4493C21.9976 27.631 22.2516 27.7355 22.5105 27.7355C22.7703 27.7355 23.0234 27.6311 23.2064 27.4493C23.3905 27.2668 23.4948 27.0157 23.4948 26.7589C23.4949 26.501 23.3905 26.2501 23.2064 26.0684Z" fill="#EB2E39"/>
<path d="M19.3508 21.5629C19.1677 21.3813 18.9137 21.2768 18.6548 21.2768C18.395 21.2768 18.1419 21.3813 17.9589 21.5629C17.7748 21.7445 17.6705 21.9966 17.6705 22.2534C17.6705 22.5103 17.7748 22.7623 17.9589 22.9439C18.1419 23.1256 18.395 23.2301 18.6548 23.2301C18.9137 23.2301 19.1677 23.1256 19.3508 22.9439C19.5338 22.7623 19.6391 22.5104 19.6391 22.2534C19.6391 21.9965 19.5338 21.7445 19.3508 21.5629Z" fill="#EB2E39"/>
<path d="M28.8861 25.6025C28.703 25.4208 28.4491 25.3163 28.1901 25.3163C27.9313 25.3163 27.6772 25.4208 27.4942 25.6025C27.3111 25.7841 27.2058 26.0361 27.2058 26.293C27.2058 26.5498 27.3111 26.8019 27.4942 26.9835C27.6772 27.1651 27.9313 27.2696 28.1901 27.2696C28.449 27.2696 28.703 27.1652 28.8861 26.9835C29.0691 26.8019 29.1745 26.5498 29.1745 26.293C29.1746 26.036 29.0691 25.7841 28.8861 25.6025Z" fill="#EB2E39"/>
<path d="M17.5277 8.83682C17.3446 8.65518 17.0906 8.55068 16.8317 8.55068C16.5719 8.55068 16.3188 8.65518 16.1357 8.83682C15.9527 9.01846 15.8474 9.27051 15.8474 9.52734C15.8474 9.78418 15.9527 10.0362 16.1357 10.2179C16.3188 10.3995 16.5719 10.504 16.8317 10.504C17.0906 10.504 17.3446 10.3995 17.5277 10.2179C17.7107 10.0362 17.816 9.78418 17.816 9.52734C17.816 9.27051 17.7106 9.01836 17.5277 8.83682Z" fill="#EB2E39"/>
<path d="M15.9852 15.5846C15.8021 15.4029 15.5481 15.2984 15.2892 15.2984C15.0304 15.2984 14.7763 15.4029 14.5933 15.5846C14.4092 15.7662 14.3049 16.0183 14.3049 16.2751C14.3049 16.5319 14.4092 16.784 14.5933 16.9656C14.7763 17.1473 15.0303 17.2518 15.2892 17.2518C15.5481 17.2518 15.8021 17.1473 15.9852 16.9656C16.1682 16.784 16.2735 16.5319 16.2735 16.2751C16.2735 16.0183 16.1683 15.7663 15.9852 15.5846Z" fill="#EB2E39"/>
</svg>
