<svg width="50" height="50" viewBox="0 0 50 50" fill="none" xmlns="http://www.w3.org/2000/svg">
<path d="M24.1535 9.47184C23.9683 9.2902 23.7113 9.18571 23.4494 9.18571C23.1875 9.18571 22.9306 9.2902 22.7454 9.47184C22.5602 9.65348 22.4536 9.90544 22.4536 10.1623C22.4536 10.4191 22.5601 10.6711 22.7454 10.8527C22.9306 11.0352 23.1875 11.1388 23.4494 11.1388C23.7113 11.1388 23.9683 11.0353 24.1535 10.8527C24.3386 10.6711 24.4453 10.4191 24.4453 10.1623C24.4453 9.90544 24.3387 9.65348 24.1535 9.47184Z" fill="#EB2E39"/>
<path d="M28.7516 23.8725H24.3582C22.754 23.8725 21.4489 25.1523 21.4489 26.7255V31.0338C21.4489 32.6069 22.7539 33.8868 24.3582 33.8868H28.7516C30.356 33.8867 31.661 32.6069 31.661 31.0338V26.7255C31.661 25.1524 30.356 23.8725 28.7516 23.8725ZM29.6693 31.0338C29.6693 31.53 29.2576 31.9337 28.7516 31.9337H24.3582C23.8523 31.9336 23.4406 31.53 23.4406 31.0338V26.7255C23.4406 26.2293 23.8523 25.8256 24.3582 25.8256H28.7516C29.2576 25.8256 29.6693 26.2293 29.6693 26.7255V31.0338Z" fill="#EB2E39"/>
<path d="M33.204 38.5569L31.6943 37.0764C30.9436 36.3404 29.722 36.3405 28.9709 37.0765L27.4613 38.5569C26.7106 39.2932 26.7106 40.4913 27.4613 41.2276L28.9709 42.7079C29.3465 43.0761 29.8395 43.2601 30.3327 43.2601C30.8258 43.2601 31.3189 43.076 31.6944 42.7079L33.204 41.2276C33.9548 40.4913 33.9548 39.2932 33.204 38.5569ZM30.3327 41.281L28.9164 39.8921L30.3327 38.5033L31.749 39.8921L30.3327 41.281Z" fill="#EB2E39"/>
<path d="M16.4737 26.0693L14.964 24.589C14.2133 23.8528 12.9917 23.8527 12.2406 24.589L10.731 26.0693C9.98024 26.8057 9.98024 28.0037 10.731 28.74L12.2406 30.2204C12.6162 30.5886 13.1092 30.7725 13.6023 30.7725C14.0955 30.7725 14.5885 30.5885 14.9641 30.2204L16.4737 28.74C17.2245 28.0037 17.2245 26.8057 16.4737 26.0693ZM13.6023 28.7935L12.186 27.4047L13.6023 26.0158L15.0186 27.4047L13.6023 28.7935Z" fill="#EB2E39"/>
<path d="M26.668 0.000105865C26.1181 0.000105865 25.6722 0.437311 25.6722 0.976664V16.0157C25.6722 16.555 26.1181 16.9922 26.668 16.9922H32.6868L32.8627 18.2638H18.668L17.1782 11.1389H19.6797C20.2296 11.1389 20.6756 10.7017 20.6756 10.1624C20.6756 9.62302 20.2296 9.18581 19.6797 9.18581H16.7697L15.0121 0.780571C14.9017 0.252253 14.3752 -0.0880774 13.8365 0.0200277C13.2977 0.128426 12.9506 0.644537 13.061 1.17286L14.7366 9.18591H10.6626C10.1644 9.18591 9.74282 9.54704 9.6758 10.0311L6.11643 35.7532C5.6193 39.3458 6.72898 42.9725 9.16125 45.7031C11.5935 48.4339 15.1091 50 18.8064 50H24.6029C28.3001 50 31.8157 48.4339 34.248 45.7032C36.6802 42.9726 37.79 39.3459 37.2929 35.7532L34.6967 16.9923H42.0041C42.5541 16.9923 43 16.5551 43 16.0158C43 7.18475 35.6735 0.000105865 26.668 0.000105865ZM11.5325 11.139H15.145L16.6349 18.2639H10.5465L11.5325 11.139ZM35.3193 36.0158C35.739 39.0499 34.8018 42.1123 32.7478 44.4184C30.6939 46.7242 27.7251 48.0468 24.6029 48.0468H18.8064C15.6841 48.0468 12.7153 46.7242 10.6614 44.4183C8.60745 42.1123 7.67026 39.0497 8.09011 36.0158L10.2763 20.2169H17.0434L19.8048 33.4227C19.1952 32.841 18.3934 32.5206 17.541 32.5206C16.6734 32.5206 15.8578 32.8519 15.2443 33.4535L11.5878 37.0392C10.3215 38.2811 10.3215 40.3017 11.5878 41.5435L15.2443 45.1291C15.8578 45.7307 16.6735 46.062 17.541 46.062C18.4086 46.062 19.2242 45.7307 19.8378 45.1291L23.4942 41.5435C24.7606 40.3017 24.7606 38.2811 23.4942 37.0391L22.362 35.9288L19.0764 20.2169H33.133L35.3193 36.0158ZM22.0858 38.4201C22.5756 38.9005 22.5757 39.6821 22.0858 40.1623L18.4293 43.748C18.192 43.9807 17.8765 44.1088 17.541 44.1088C17.2054 44.1088 16.89 43.9806 16.6526 43.748L12.9962 40.1623C12.5063 39.6821 12.5064 38.9005 12.9962 38.4202L16.6526 34.8345C16.8975 34.5943 17.2192 34.4743 17.5409 34.4743C17.8627 34.4743 18.1845 34.5943 18.4293 34.8345L22.0858 38.4201ZM27.6639 15.0391V5.72069C32.6856 6.18416 36.6938 10.1147 37.1664 15.0391H27.6639ZM39.166 15.0392C38.6827 9.03708 33.7847 4.23388 27.6639 3.75986V1.98682C34.7787 2.46797 40.4834 8.06209 40.974 15.0392H39.166Z" fill="#EB2E39"/>
<path d="M30.8345 7.90828C30.3594 7.6365 29.7495 7.79392 29.4724 8.25974L29.334 8.49236C29.0569 8.95827 29.2173 9.55622 29.6924 9.8279C29.8503 9.91813 30.0229 9.9611 30.1932 9.9611C30.5358 9.9611 30.8693 9.78757 31.0544 9.47643L31.1928 9.24382C31.47 8.778 31.3096 8.18005 30.8345 7.90828Z" fill="#EB2E39"/>
<path d="M34.5432 11.7764C34.2948 11.2953 33.6957 11.1027 33.205 11.3463L32.9311 11.4824C32.4404 11.726 32.2442 12.3136 32.4927 12.7948C32.6681 13.1345 33.0183 13.3303 33.3819 13.3303C33.5332 13.3303 33.6868 13.2964 33.831 13.2248L34.1049 13.0887C34.5955 12.8452 34.7918 12.2576 34.5432 11.7764Z" fill="#EB2E39"/>
<path d="M30.7739 11.8095C30.385 11.4282 29.7547 11.4282 29.3656 11.8095L29.0668 12.1025C28.678 12.4838 28.678 13.1022 29.0668 13.4836C29.2613 13.6744 29.5162 13.7697 29.771 13.7697C30.0258 13.7697 30.2807 13.6744 30.4752 13.4836L30.7739 13.1907C31.1628 12.8093 31.1628 12.191 30.7739 11.8095Z" fill="#EB2E39"/>
</svg>
