<svg width="20" height="20" viewBox="0 0 20 20" fill="none" xmlns="http://www.w3.org/2000/svg">
<path d="M19.8721 10.5146L16.8204 5.82315C16.676 5.60118 16.4304 5.46748 16.167 5.46748H12.3707V3.7874C12.3707 3.35252 12.0209 3 11.5894 3H0.78125C0.349766 3 0 3.35252 0 3.7874V15.6378C0 16.0727 0.349766 16.4252 0.78125 16.4252H3.25938C3.58188 17.3417 4.45027 18 5.46875 18C6.48723 18 7.35559 17.3417 7.67812 16.4252H13.1948C13.5173 17.3417 14.3857 18 15.4042 18C16.4227 18 17.291 17.3417 17.6136 16.4252H19.2188C19.6502 16.4252 20 16.0727 20 15.6378V10.9463C20 10.793 19.9555 10.6429 19.8721 10.5146ZM5.46875 16.4252C5.03797 16.4252 4.6875 16.072 4.6875 15.6378C4.6875 15.2036 5.03797 14.8504 5.46875 14.8504C5.89953 14.8504 6.25 15.2036 6.25 15.6378C6.25 16.072 5.89953 16.4252 5.46875 16.4252ZM10.8082 14.8504H7.67809C7.35559 13.9339 6.48719 13.2756 5.46871 13.2756C4.45023 13.2756 3.58188 13.9339 3.25934 14.8504H1.5625V4.5748H10.8082V14.8504ZM15.4042 16.4252C14.9734 16.4252 14.6229 16.072 14.6229 15.6378C14.6229 15.2036 14.9734 14.8504 15.4042 14.8504C15.835 14.8504 16.1854 15.2036 16.1854 15.6378C16.1854 16.072 15.835 16.4252 15.4042 16.4252ZM18.4375 14.8504H17.6135C17.291 13.9339 16.4226 13.2756 15.4041 13.2756C14.3857 13.2756 13.5173 13.9339 13.1948 14.8504H12.3706V7.04228H15.745L18.4375 11.1815V14.8504Z" fill="#EB2E39"/>
</svg>
