<svg width="20" height="20" viewBox="0 0 20 20" fill="none" xmlns="http://www.w3.org/2000/svg">
<path d="M17.5148 3.23851L9.80179 0.0597217C9.60857 -0.0198877 9.39139 -0.0199268 9.19821 0.0597217L1.48525 3.23851C1.19149 3.35961 1 3.64429 1 3.96004V7.8243C1 13.1451 4.2398 17.9313 9.20258 19.9421C9.3932 20.0193 9.60676 20.0193 9.79742 19.9421C14.7601 17.9314 18 13.1452 18 7.8243V3.96004C18 3.64429 17.8086 3.35961 17.5148 3.23851V3.23851ZM16.4259 7.8243C16.4259 12.3475 13.75 16.5115 9.5 18.3702C5.36357 16.5611 2.57407 12.4701 2.57407 7.8243V4.4816L9.5 1.62714L16.4259 4.4816V7.8243ZM8.63009 10.4577L12.0129 7.09973C12.3203 6.79465 12.8186 6.79461 13.126 7.09973C13.4333 7.40484 13.4333 7.89949 13.1259 8.20457L9.1866 12.1149C8.87918 12.4201 8.38087 12.42 8.07357 12.1149L5.87404 9.93157C5.56666 9.62645 5.56666 9.1318 5.87404 8.82672C6.18142 8.52164 6.67973 8.5216 6.98707 8.82672L8.63009 10.4577Z" fill="#EB2E39"/>
</svg>
