<svg width="20" height="20" viewBox="0 0 20 20" fill="none" xmlns="http://www.w3.org/2000/svg">
<path d="M19.2188 0C18.4517 0 1.86242 0 0.78125 0C0.349766 0 0 0.349766 0 0.78125V19.2188C0 19.6502 0.349766 20 0.78125 20H19.2188C19.6502 20 20 19.6502 20 19.2188V0.78125C20 0.349766 19.6502 0 19.2188 0ZM6.17188 1.5625H13.8281V8.52645L10.4384 6.22836C10.1738 6.04891 9.82629 6.04883 9.5616 6.22836L6.17188 8.52645V1.5625ZM18.4375 18.4375H1.5625V1.5625H4.60938V10C4.60938 10.6255 5.31086 10.998 5.82902 10.6466L10 7.81887L14.171 10.6466C14.6855 10.9955 15.3906 10.6298 15.3906 10V1.5625H18.4375V18.4375Z" fill="#EB2E39"/>
</svg>
